<?xml version="1.0" encoding="UTF-8" standalone="no"?>
<!DOCTYPE svg PUBLIC "-//W3C//DTD SVG 1.1//EN"
 "http://www.w3.org/Graphics/SVG/1.1/DTD/svg11.dtd">
<!-- Generated by graphviz version 9.0.0 (20230911.1827)
 -->
<!-- Title: G Pages: 1 -->
<svg width="3164pt" height="404pt"
 viewBox="0.00 0.00 3163.53 404.00" xmlns="http://www.w3.org/2000/svg" xmlns:xlink="http://www.w3.org/1999/xlink">
<g id="graph0" class="graph" transform="scale(1 1) rotate(0) translate(4 400)">
<title>G</title>
<polygon fill="white" stroke="none" points="-4,4 -4,-400 3159.53,-400 3159.53,4 -4,4"/>
<!-- 0 -->
<g id="node1" class="node">
<title>0</title>
<ellipse fill="none" stroke="black" cx="107.14" cy="-234" rx="107.14" ry="18"/>
<text text-anchor="middle" x="107.14" y="-228.95" font-family="Times,serif" font-size="14.00">Token(&#39;VARIABLES&#39;, &#39;x&#39;)</text>
</g>
<!-- 1 -->
<g id="node2" class="node">
<title>1</title>
<ellipse fill="none" stroke="black" cx="329.14" cy="-234" rx="96.39" ry="18"/>
<text text-anchor="middle" x="329.14" y="-228.95" font-family="Times,serif" font-size="14.00">Token(&#39;NUMBER&#39;, &#39;1&#39;)</text>
</g>
<!-- 2 -->
<g id="node3" class="node">
<title>2</title>
<ellipse fill="#f8a987" stroke="black" cx="329.14" cy="-306" rx="56.47" ry="18"/>
<text text-anchor="middle" x="329.14" y="-300.95" font-family="Times,serif" font-size="14.00">assignments</text>
</g>
<!-- 2&#45;&gt;0 -->
<g id="edge1" class="edge">
<title>2&#45;&gt;0</title>
<path fill="none" stroke="black" d="M289.96,-292.65C255.9,-281.91 206.03,-266.18 166.97,-253.87"/>
<polygon fill="black" stroke="black" points="168.04,-250.53 157.45,-250.86 165.94,-257.21 168.04,-250.53"/>
</g>
<!-- 2&#45;&gt;1 -->
<g id="edge2" class="edge">
<title>2&#45;&gt;1</title>
<path fill="none" stroke="black" d="M329.14,-287.7C329.14,-280.41 329.14,-271.73 329.14,-263.54"/>
<polygon fill="black" stroke="black" points="332.64,-263.62 329.14,-253.62 325.64,-263.62 332.64,-263.62"/>
</g>
<!-- 3 -->
<g id="node4" class="node">
<title>3</title>
<ellipse fill="none" stroke="black" cx="551.14" cy="-234" rx="107.14" ry="18"/>
<text text-anchor="middle" x="551.14" y="-228.95" font-family="Times,serif" font-size="14.00">Token(&#39;VARIABLES&#39;, &#39;y&#39;)</text>
</g>
<!-- 4 -->
<g id="node5" class="node">
<title>4</title>
<ellipse fill="none" stroke="black" cx="773.14" cy="-234" rx="96.39" ry="18"/>
<text text-anchor="middle" x="773.14" y="-228.95" font-family="Times,serif" font-size="14.00">Token(&#39;NUMBER&#39;, &#39;2&#39;)</text>
</g>
<!-- 5 -->
<g id="node6" class="node">
<title>5</title>
<ellipse fill="#f8a987" stroke="black" cx="773.14" cy="-306" rx="56.47" ry="18"/>
<text text-anchor="middle" x="773.14" y="-300.95" font-family="Times,serif" font-size="14.00">assignments</text>
</g>
<!-- 5&#45;&gt;3 -->
<g id="edge3" class="edge">
<title>5&#45;&gt;3</title>
<path fill="none" stroke="black" d="M733.96,-292.65C699.9,-281.91 650.03,-266.18 610.97,-253.87"/>
<polygon fill="black" stroke="black" points="612.04,-250.53 601.45,-250.86 609.94,-257.21 612.04,-250.53"/>
</g>
<!-- 5&#45;&gt;4 -->
<g id="edge4" class="edge">
<title>5&#45;&gt;4</title>
<path fill="none" stroke="black" d="M773.14,-287.7C773.14,-280.41 773.14,-271.73 773.14,-263.54"/>
<polygon fill="black" stroke="black" points="776.64,-263.62 773.14,-253.62 769.64,-263.62 776.64,-263.62"/>
</g>
<!-- 6 -->
<g id="node7" class="node">
<title>6</title>
<ellipse fill="none" stroke="black" cx="995.14" cy="-234" rx="107.14" ry="18"/>
<text text-anchor="middle" x="995.14" y="-228.95" font-family="Times,serif" font-size="14.00">Token(&#39;VARIABLES&#39;, &#39;y&#39;)</text>
</g>
<!-- 7 -->
<g id="node8" class="node">
<title>7</title>
<ellipse fill="none" stroke="black" cx="1226.14" cy="-234" rx="105.6" ry="18"/>
<text text-anchor="middle" x="1226.14" y="-228.95" font-family="Times,serif" font-size="14.00">Token(&#39;NUMBER&#39;, &#39;100&#39;)</text>
</g>
<!-- 8 -->
<g id="node9" class="node">
<title>8</title>
<ellipse fill="#f8a987" stroke="black" cx="995.14" cy="-306" rx="56.47" ry="18"/>
<text text-anchor="middle" x="995.14" y="-300.95" font-family="Times,serif" font-size="14.00">assignments</text>
</g>
<!-- 8&#45;&gt;6 -->
<g id="edge5" class="edge">
<title>8&#45;&gt;6</title>
<path fill="none" stroke="black" d="M995.14,-287.7C995.14,-280.41 995.14,-271.73 995.14,-263.54"/>
<polygon fill="black" stroke="black" points="998.64,-263.62 995.14,-253.62 991.64,-263.62 998.64,-263.62"/>
</g>
<!-- 8&#45;&gt;7 -->
<g id="edge6" class="edge">
<title>8&#45;&gt;7</title>
<path fill="none" stroke="black" d="M1035.11,-292.89C1070.83,-282.06 1123.72,-266.04 1164.8,-253.59"/>
<polygon fill="black" stroke="black" points="1165.77,-256.95 1174.32,-250.7 1163.74,-250.25 1165.77,-256.95"/>
</g>
<!-- 9 -->
<g id="node10" class="node">
<title>9</title>
<ellipse fill="none" stroke="black" cx="743.14" cy="-90" rx="179.3" ry="18"/>
<text text-anchor="middle" x="743.14" y="-84.95" font-family="Times,serif" font-size="14.00">Token(&#39;CONDITION_KEYWORD&#39;, &#39;switch&#39;)</text>
</g>
<!-- 10 -->
<g id="node11" class="node">
<title>10</title>
<ellipse fill="none" stroke="black" cx="1047.14" cy="-90" rx="107.14" ry="18"/>
<text text-anchor="middle" x="1047.14" y="-84.95" font-family="Times,serif" font-size="14.00">Token(&#39;VARIABLES&#39;, &#39;y&#39;)</text>
</g>
<!-- 11 -->
<g id="node12" class="node">
<title>11</title>
<ellipse fill="#f097a8" stroke="black" cx="1047.14" cy="-162" rx="45.72" ry="18"/>
<text text-anchor="middle" x="1047.14" y="-156.95" font-family="Times,serif" font-size="14.00">condition</text>
</g>
<!-- 11&#45;&gt;9 -->
<g id="edge7" class="edge">
<title>11&#45;&gt;9</title>
<path fill="none" stroke="black" d="M1008.33,-152.06C961.99,-141.39 883.28,-123.27 823.61,-109.53"/>
<polygon fill="black" stroke="black" points="824.71,-106.19 814.18,-107.36 823.14,-113.01 824.71,-106.19"/>
</g>
<!-- 11&#45;&gt;10 -->
<g id="edge8" class="edge">
<title>11&#45;&gt;10</title>
<path fill="none" stroke="black" d="M1047.14,-143.7C1047.14,-136.41 1047.14,-127.73 1047.14,-119.54"/>
<polygon fill="black" stroke="black" points="1050.64,-119.62 1047.14,-109.62 1043.64,-119.62 1050.64,-119.62"/>
</g>
<!-- 12 -->
<g id="node13" class="node">
<title>12</title>
<ellipse fill="#e7eded" stroke="black" cx="1430.14" cy="-234" rx="80.52" ry="18"/>
<text text-anchor="middle" x="1430.14" y="-228.95" font-family="Times,serif" font-size="14.00">switch_declaration</text>
</g>
<!-- 12&#45;&gt;11 -->
<g id="edge9" class="edge">
<title>12&#45;&gt;11</title>
<path fill="none" stroke="black" d="M1370.79,-221.58C1360.89,-219.7 1350.73,-217.78 1341.14,-216 1256.52,-200.29 1158.08,-182.68 1099.28,-172.23"/>
<polygon fill="black" stroke="black" points="1100.01,-168.81 1089.56,-170.5 1098.79,-175.7 1100.01,-168.81"/>
</g>
<!-- 13 -->
<g id="node14" class="node">
<title>13</title>
<ellipse fill="none" stroke="black" cx="1269.14" cy="-90" rx="96.39" ry="18"/>
<text text-anchor="middle" x="1269.14" y="-84.95" font-family="Times,serif" font-size="14.00">Token(&#39;NUMBER&#39;, &#39;0&#39;)</text>
</g>
<!-- 14 -->
<g id="node15" class="node">
<title>14</title>
<ellipse fill="none" stroke="black" cx="1202.14" cy="-18" rx="140.92" ry="18"/>
<text text-anchor="middle" x="1202.14" y="-12.95" font-family="Times,serif" font-size="14.00">Token(&#39;RESULT_VARIABLE&#39;, &#39;z&#39;)</text>
</g>
<!-- 15 -->
<g id="node16" class="node">
<title>15</title>
<ellipse fill="none" stroke="black" cx="1462.14" cy="-18" rx="101" ry="18"/>
<text text-anchor="middle" x="1462.14" y="-12.95" font-family="Times,serif" font-size="14.00">Token(&#39;NUMBER&#39;, &#39;10&#39;)</text>
</g>
<!-- 16 -->
<g id="node17" class="node">
<title>16</title>
<ellipse fill="#aaeaa1" stroke="black" cx="1461.14" cy="-90" rx="77.97" ry="18"/>
<text text-anchor="middle" x="1461.14" y="-84.95" font-family="Times,serif" font-size="14.00">assignment_result</text>
</g>
<!-- 16&#45;&gt;14 -->
<g id="edge10" class="edge">
<title>16&#45;&gt;14</title>
<path fill="none" stroke="black" d="M1411.81,-75.67C1372.03,-64.92 1315.61,-49.67 1271.32,-37.7"/>
<polygon fill="black" stroke="black" points="1272.36,-34.35 1261.8,-35.12 1270.54,-41.11 1272.36,-34.35"/>
</g>
<!-- 16&#45;&gt;15 -->
<g id="edge11" class="edge">
<title>16&#45;&gt;15</title>
<path fill="none" stroke="black" d="M1461.39,-71.7C1461.49,-64.41 1461.61,-55.73 1461.73,-47.54"/>
<polygon fill="black" stroke="black" points="1465.23,-47.67 1461.87,-37.62 1458.23,-47.57 1465.23,-47.67"/>
</g>
<!-- 17 -->
<g id="node18" class="node">
<title>17</title>
<ellipse fill="#b1adcb" stroke="black" cx="1617.14" cy="-90" rx="60.05" ry="18"/>
<text text-anchor="middle" x="1617.14" y="-84.95" font-family="Times,serif" font-size="14.00">break_switch</text>
</g>
<!-- 18 -->
<g id="node19" class="node">
<title>18</title>
<ellipse fill="#df9fe5" stroke="black" cx="1539.14" cy="-162" rx="51.86" ry="18"/>
<text text-anchor="middle" x="1539.14" y="-156.95" font-family="Times,serif" font-size="14.00">case_block</text>
</g>
<!-- 18&#45;&gt;13 -->
<g id="edge12" class="edge">
<title>18&#45;&gt;13</title>
<path fill="none" stroke="black" d="M1498.42,-150.44C1455.05,-139.2 1385.75,-121.23 1334.68,-107.99"/>
<polygon fill="black" stroke="black" points="1335.77,-104.66 1325.21,-105.54 1334.02,-111.44 1335.77,-104.66"/>
</g>
<!-- 18&#45;&gt;16 -->
<g id="edge13" class="edge">
<title>18&#45;&gt;16</title>
<path fill="none" stroke="black" d="M1521.05,-144.76C1511.32,-136.03 1499.12,-125.09 1488.28,-115.36"/>
<polygon fill="black" stroke="black" points="1490.85,-112.96 1481.07,-108.89 1486.18,-118.17 1490.85,-112.96"/>
</g>
<!-- 18&#45;&gt;17 -->
<g id="edge14" class="edge">
<title>18&#45;&gt;17</title>
<path fill="none" stroke="black" d="M1557.23,-144.76C1567.1,-135.91 1579.51,-124.77 1590.47,-114.93"/>
<polygon fill="black" stroke="black" points="1592.64,-117.68 1597.75,-108.4 1587.97,-112.47 1592.64,-117.68"/>
</g>
<!-- 19 -->
<g id="node20" class="node">
<title>19</title>
<ellipse fill="none" stroke="black" cx="1791.14" cy="-90" rx="96.39" ry="18"/>
<text text-anchor="middle" x="1791.14" y="-84.95" font-family="Times,serif" font-size="14.00">Token(&#39;NUMBER&#39;, &#39;1&#39;)</text>
</g>
<!-- 20 -->
<g id="node21" class="node">
<title>20</title>
<ellipse fill="none" stroke="black" cx="1724.14" cy="-18" rx="140.92" ry="18"/>
<text text-anchor="middle" x="1724.14" y="-12.95" font-family="Times,serif" font-size="14.00">Token(&#39;RESULT_VARIABLE&#39;, &#39;z&#39;)</text>
</g>
<!-- 21 -->
<g id="node22" class="node">
<title>21</title>
<ellipse fill="none" stroke="black" cx="1984.14" cy="-18" rx="101" ry="18"/>
<text text-anchor="middle" x="1984.14" y="-12.95" font-family="Times,serif" font-size="14.00">Token(&#39;NUMBER&#39;, &#39;20&#39;)</text>
</g>
<!-- 22 -->
<g id="node23" class="node">
<title>22</title>
<ellipse fill="#aaeaa1" stroke="black" cx="1983.14" cy="-90" rx="77.97" ry="18"/>
<text text-anchor="middle" x="1983.14" y="-84.95" font-family="Times,serif" font-size="14.00">assignment_result</text>
</g>
<!-- 22&#45;&gt;20 -->
<g id="edge15" class="edge">
<title>22&#45;&gt;20</title>
<path fill="none" stroke="black" d="M1933.81,-75.67C1894.03,-64.92 1837.61,-49.67 1793.32,-37.7"/>
<polygon fill="black" stroke="black" points="1794.36,-34.35 1783.8,-35.12 1792.54,-41.11 1794.36,-34.35"/>
</g>
<!-- 22&#45;&gt;21 -->
<g id="edge16" class="edge">
<title>22&#45;&gt;21</title>
<path fill="none" stroke="black" d="M1983.39,-71.7C1983.49,-64.41 1983.61,-55.73 1983.73,-47.54"/>
<polygon fill="black" stroke="black" points="1987.23,-47.67 1983.87,-37.62 1980.23,-47.57 1987.23,-47.67"/>
</g>
<!-- 23 -->
<g id="node24" class="node">
<title>23</title>
<ellipse fill="#b1adcb" stroke="black" cx="2139.14" cy="-90" rx="60.05" ry="18"/>
<text text-anchor="middle" x="2139.14" y="-84.95" font-family="Times,serif" font-size="14.00">break_switch</text>
</g>
<!-- 24 -->
<g id="node25" class="node">
<title>24</title>
<ellipse fill="#df9fe5" stroke="black" cx="1983.14" cy="-162" rx="51.86" ry="18"/>
<text text-anchor="middle" x="1983.14" y="-156.95" font-family="Times,serif" font-size="14.00">case_block</text>
</g>
<!-- 24&#45;&gt;19 -->
<g id="edge17" class="edge">
<title>24&#45;&gt;19</title>
<path fill="none" stroke="black" d="M1948.37,-148.32C1919.31,-137.73 1877.41,-122.45 1844.16,-110.33"/>
<polygon fill="black" stroke="black" points="1845.72,-107.17 1835.12,-107.04 1843.32,-113.75 1845.72,-107.17"/>
</g>
<!-- 24&#45;&gt;22 -->
<g id="edge18" class="edge">
<title>24&#45;&gt;22</title>
<path fill="none" stroke="black" d="M1983.14,-143.7C1983.14,-136.41 1983.14,-127.73 1983.14,-119.54"/>
<polygon fill="black" stroke="black" points="1986.64,-119.62 1983.14,-109.62 1979.64,-119.62 1986.64,-119.62"/>
</g>
<!-- 24&#45;&gt;23 -->
<g id="edge19" class="edge">
<title>24&#45;&gt;23</title>
<path fill="none" stroke="black" d="M2013.96,-147.17C2037.53,-136.59 2070.3,-121.89 2096.4,-110.18"/>
<polygon fill="black" stroke="black" points="2097.7,-113.43 2105.39,-106.14 2094.83,-107.04 2097.7,-113.43"/>
</g>
<!-- 25 -->
<g id="node26" class="node">
<title>25</title>
<ellipse fill="none" stroke="black" cx="2313.14" cy="-90" rx="96.39" ry="18"/>
<text text-anchor="middle" x="2313.14" y="-84.95" font-family="Times,serif" font-size="14.00">Token(&#39;NUMBER&#39;, &#39;2&#39;)</text>
</g>
<!-- 26 -->
<g id="node27" class="node">
<title>26</title>
<ellipse fill="none" stroke="black" cx="2258.14" cy="-18" rx="140.92" ry="18"/>
<text text-anchor="middle" x="2258.14" y="-12.95" font-family="Times,serif" font-size="14.00">Token(&#39;RESULT_VARIABLE&#39;, &#39;z&#39;)</text>
</g>
<!-- 27 -->
<g id="node28" class="node">
<title>27</title>
<ellipse fill="none" stroke="black" cx="2518.14" cy="-18" rx="101" ry="18"/>
<text text-anchor="middle" x="2518.14" y="-12.95" font-family="Times,serif" font-size="14.00">Token(&#39;NUMBER&#39;, &#39;30&#39;)</text>
</g>
<!-- 28 -->
<g id="node29" class="node">
<title>28</title>
<ellipse fill="#aaeaa1" stroke="black" cx="2505.14" cy="-90" rx="77.97" ry="18"/>
<text text-anchor="middle" x="2505.14" y="-84.95" font-family="Times,serif" font-size="14.00">assignment_result</text>
</g>
<!-- 28&#45;&gt;26 -->
<g id="edge20" class="edge">
<title>28&#45;&gt;26</title>
<path fill="none" stroke="black" d="M2457.22,-75.42C2419.62,-64.76 2366.82,-49.8 2325.05,-37.96"/>
<polygon fill="black" stroke="black" points="2326.16,-34.64 2315.59,-35.28 2324.25,-41.38 2326.16,-34.64"/>
</g>
<!-- 28&#45;&gt;27 -->
<g id="edge21" class="edge">
<title>28&#45;&gt;27</title>
<path fill="none" stroke="black" d="M2508.35,-71.7C2509.72,-64.32 2511.36,-55.52 2512.89,-47.25"/>
<polygon fill="black" stroke="black" points="2516.3,-48.06 2514.69,-37.59 2509.42,-46.79 2516.3,-48.06"/>
</g>
<!-- 29 -->
<g id="node30" class="node">
<title>29</title>
<ellipse fill="#b1adcb" stroke="black" cx="2661.14" cy="-90" rx="60.05" ry="18"/>
<text text-anchor="middle" x="2661.14" y="-84.95" font-family="Times,serif" font-size="14.00">break_switch</text>
</g>
<!-- 30 -->
<g id="node31" class="node">
<title>30</title>
<ellipse fill="#df9fe5" stroke="black" cx="2409.14" cy="-162" rx="51.86" ry="18"/>
<text text-anchor="middle" x="2409.14" y="-156.95" font-family="Times,serif" font-size="14.00">case_block</text>
</g>
<!-- 30&#45;&gt;25 -->
<g id="edge22" class="edge">
<title>30&#45;&gt;25</title>
<path fill="none" stroke="black" d="M2387.83,-145.46C2375.36,-136.37 2359.35,-124.7 2345.36,-114.49"/>
<polygon fill="black" stroke="black" points="2347.43,-111.67 2337.28,-108.61 2343.3,-117.33 2347.43,-111.67"/>
</g>
<!-- 30&#45;&gt;28 -->
<g id="edge23" class="edge">
<title>30&#45;&gt;28</title>
<path fill="none" stroke="black" d="M2430.44,-145.46C2443.13,-136.21 2459.47,-124.3 2473.63,-113.98"/>
<polygon fill="black" stroke="black" points="2475.31,-117.08 2481.33,-108.36 2471.19,-111.42 2475.31,-117.08"/>
</g>
<!-- 30&#45;&gt;29 -->
<g id="edge24" class="edge">
<title>30&#45;&gt;29</title>
<path fill="none" stroke="black" d="M2448.79,-149.99C2491.52,-138.12 2559.78,-119.16 2607.33,-105.95"/>
<polygon fill="black" stroke="black" points="2608.19,-109.34 2616.89,-103.29 2606.32,-102.6 2608.19,-109.34"/>
</g>
<!-- 31 -->
<g id="node32" class="node">
<title>31</title>
<ellipse fill="none" stroke="black" cx="2804.14" cy="-18" rx="140.92" ry="18"/>
<text text-anchor="middle" x="2804.14" y="-12.95" font-family="Times,serif" font-size="14.00">Token(&#39;RESULT_VARIABLE&#39;, &#39;z&#39;)</text>
</g>
<!-- 32 -->
<g id="node33" class="node">
<title>32</title>
<ellipse fill="none" stroke="black" cx="3059.14" cy="-18" rx="96.39" ry="18"/>
<text text-anchor="middle" x="3059.14" y="-12.95" font-family="Times,serif" font-size="14.00">Token(&#39;NUMBER&#39;, &#39;1&#39;)</text>
</g>
<!-- 33 -->
<g id="node34" class="node">
<title>33</title>
<ellipse fill="#aaeaa1" stroke="black" cx="2817.14" cy="-90" rx="77.97" ry="18"/>
<text text-anchor="middle" x="2817.14" y="-84.95" font-family="Times,serif" font-size="14.00">assignment_result</text>
</g>
<!-- 33&#45;&gt;31 -->
<g id="edge25" class="edge">
<title>33&#45;&gt;31</title>
<path fill="none" stroke="black" d="M2813.93,-71.7C2812.56,-64.32 2810.92,-55.52 2809.38,-47.25"/>
<polygon fill="black" stroke="black" points="2812.86,-46.79 2807.59,-37.59 2805.98,-48.06 2812.86,-46.79"/>
</g>
<!-- 33&#45;&gt;32 -->
<g id="edge26" class="edge">
<title>33&#45;&gt;32</title>
<path fill="none" stroke="black" d="M2864.37,-75.34C2902.3,-64.37 2955.86,-48.87 2997.22,-36.91"/>
<polygon fill="black" stroke="black" points="2998.18,-40.28 3006.81,-34.14 2996.23,-33.55 2998.18,-40.28"/>
</g>
<!-- 34 -->
<g id="node35" class="node">
<title>34</title>
<ellipse fill="#b1adcb" stroke="black" cx="2973.14" cy="-90" rx="60.05" ry="18"/>
<text text-anchor="middle" x="2973.14" y="-84.95" font-family="Times,serif" font-size="14.00">break_switch</text>
</g>
<!-- 35 -->
<g id="node36" class="node">
<title>35</title>
<ellipse fill="#fe94c4" stroke="black" cx="2817.14" cy="-162" rx="61.59" ry="18"/>
<text text-anchor="middle" x="2817.14" y="-156.95" font-family="Times,serif" font-size="14.00">default_block</text>
</g>
<!-- 35&#45;&gt;33 -->
<g id="edge27" class="edge">
<title>35&#45;&gt;33</title>
<path fill="none" stroke="black" d="M2817.14,-143.7C2817.14,-136.41 2817.14,-127.73 2817.14,-119.54"/>
<polygon fill="black" stroke="black" points="2820.64,-119.62 2817.14,-109.62 2813.64,-119.62 2820.64,-119.62"/>
</g>
<!-- 35&#45;&gt;34 -->
<g id="edge28" class="edge">
<title>35&#45;&gt;34</title>
<path fill="none" stroke="black" d="M2849.84,-146.33C2873.22,-135.84 2904.9,-121.62 2930.29,-110.23"/>
<polygon fill="black" stroke="black" points="2931.67,-113.44 2939.37,-106.15 2928.81,-107.06 2931.67,-113.44"/>
</g>
<!-- 36 -->
<g id="node37" class="node">
<title>36</title>
<ellipse fill="#bda388" stroke="black" cx="1983.14" cy="-234" rx="71.82" ry="18"/>
<text text-anchor="middle" x="1983.14" y="-228.95" font-family="Times,serif" font-size="14.00">execution_block</text>
</g>
<!-- 36&#45;&gt;18 -->
<g id="edge29" class="edge">
<title>36&#45;&gt;18</title>
<path fill="none" stroke="black" d="M1923.72,-223.63C1838.21,-210.15 1681.46,-185.44 1596.89,-172.11"/>
<polygon fill="black" stroke="black" points="1597.62,-168.68 1587.2,-170.58 1596.53,-175.59 1597.62,-168.68"/>
</g>
<!-- 36&#45;&gt;24 -->
<g id="edge30" class="edge">
<title>36&#45;&gt;24</title>
<path fill="none" stroke="black" d="M1983.14,-215.7C1983.14,-208.41 1983.14,-199.73 1983.14,-191.54"/>
<polygon fill="black" stroke="black" points="1986.64,-191.62 1983.14,-181.62 1979.64,-191.62 1986.64,-191.62"/>
</g>
<!-- 36&#45;&gt;30 -->
<g id="edge31" class="edge">
<title>36&#45;&gt;30</title>
<path fill="none" stroke="black" d="M2041.92,-223.34C2123.78,-209.89 2271.13,-185.68 2352.06,-172.38"/>
<polygon fill="black" stroke="black" points="2352.24,-175.9 2361.54,-170.82 2351.1,-168.99 2352.24,-175.9"/>
</g>
<!-- 36&#45;&gt;35 -->
<g id="edge32" class="edge">
<title>36&#45;&gt;35</title>
<path fill="none" stroke="black" d="M2050.33,-227.36C2205.76,-214.32 2588.88,-182.16 2747.07,-168.88"/>
<polygon fill="black" stroke="black" points="2747.34,-172.37 2757.01,-168.05 2746.75,-165.4 2747.34,-172.37"/>
</g>
<!-- 37 -->
<g id="node38" class="node">
<title>37</title>
<ellipse fill="#c4f7a7" stroke="black" cx="1430.14" cy="-306" rx="75.41" ry="18"/>
<text text-anchor="middle" x="1430.14" y="-300.95" font-family="Times,serif" font-size="14.00">switch_statement</text>
</g>
<!-- 37&#45;&gt;12 -->
<g id="edge33" class="edge">
<title>37&#45;&gt;12</title>
<path fill="none" stroke="black" d="M1430.14,-287.7C1430.14,-280.41 1430.14,-271.73 1430.14,-263.54"/>
<polygon fill="black" stroke="black" points="1433.64,-263.62 1430.14,-253.62 1426.64,-263.62 1433.64,-263.62"/>
</g>
<!-- 37&#45;&gt;36 -->
<g id="edge34" class="edge">
<title>37&#45;&gt;36</title>
<path fill="none" stroke="black" d="M1495.47,-296.73C1598.99,-283.63 1800.08,-258.17 1908.9,-244.4"/>
<polygon fill="black" stroke="black" points="1909.11,-247.9 1918.6,-243.17 1908.24,-240.95 1909.11,-247.9"/>
</g>
<!-- 38 -->
<g id="node39" class="node">
<title>38</title>
<ellipse fill="#97a2a1" stroke="black" cx="884.14" cy="-378" rx="49.3" ry="18"/>
<text text-anchor="middle" x="884.14" y="-372.95" font-family="Times,serif" font-size="14.00">operations</text>
</g>
<!-- 38&#45;&gt;2 -->
<g id="edge35" class="edge">
<title>38&#45;&gt;2</title>
<path fill="none" stroke="black" d="M838.25,-371.21C739.2,-358.72 505.2,-329.21 392.28,-314.96"/>
<polygon fill="black" stroke="black" points="392.94,-311.52 382.58,-313.74 392.07,-318.46 392.94,-311.52"/>
</g>
<!-- 38&#45;&gt;5 -->
<g id="edge36" class="edge">
<title>38&#45;&gt;5</title>
<path fill="none" stroke="black" d="M860.05,-361.81C844.7,-352.13 824.57,-339.43 807.55,-328.7"/>
<polygon fill="black" stroke="black" points="809.55,-325.83 799.23,-323.45 805.82,-331.75 809.55,-325.83"/>
</g>
<!-- 38&#45;&gt;8 -->
<g id="edge37" class="edge">
<title>38&#45;&gt;8</title>
<path fill="none" stroke="black" d="M908.22,-361.81C923.57,-352.13 943.71,-339.43 960.73,-328.7"/>
<polygon fill="black" stroke="black" points="962.46,-331.75 969.05,-323.45 958.73,-325.83 962.46,-331.75"/>
</g>
<!-- 38&#45;&gt;37 -->
<g id="edge38" class="edge">
<title>38&#45;&gt;37</title>
<path fill="none" stroke="black" d="M930.22,-371.09C1024.15,-359.05 1238.56,-331.56 1353.7,-316.8"/>
<polygon fill="black" stroke="black" points="1353.89,-320.3 1363.36,-315.56 1352.99,-313.36 1353.89,-320.3"/>
</g>
</g>
</svg>
